<?xml version="1.0" encoding="UTF-8"?><svg id="Calque_2" xmlns="http://www.w3.org/2000/svg" xmlns:xlink="http://www.w3.org/1999/xlink" viewBox="0 0 406.91 411.29"><defs><style>.cls-1{fill:url(#Nouvelle_nuance_de_dégradé_1_2);}.cls-2{fill:url(#Nouvelle_nuance_de_dégradé_1_4-4);}.cls-3{fill:url(#Nouvelle_nuance_de_dégradé_1_4-2);}.cls-4{fill:url(#Nouvelle_nuance_de_dégradé_1_4);}.cls-5{fill:url(#Nouvelle_nuance_de_dégradé_1_2-2);}.cls-6{fill:url(#Nouvelle_nuance_de_dégradé_1_4-3);}</style><linearGradient id="Nouvelle_nuance_de_dégradé_1_4" x1="332.9" y1="239.2" x2="389.16" y2="206.72" gradientUnits="userSpaceOnUse"><stop offset="0" stop-color="#01d2b3"/><stop offset="1" stop-color="#3c8aca"/></linearGradient><linearGradient id="Nouvelle_nuance_de_dégradé_1_4-2" x1="199.84" y1="132.28" x2="406.91" y2="132.28" xlink:href="#Nouvelle_nuance_de_dégradé_1_4"/><linearGradient id="Nouvelle_nuance_de_dégradé_1_2" x1="96.82" y1="219.33" x2="264.49" y2="122.52" gradientUnits="userSpaceOnUse"><stop offset=".34" stop-color="#058cf8"/><stop offset="1" stop-color="#001eb7"/></linearGradient><linearGradient id="Nouvelle_nuance_de_dégradé_1_2-2" x1="205.32" y1="324.88" x2="359.02" y2="324.88" xlink:href="#Nouvelle_nuance_de_dégradé_1_2"/><linearGradient id="Nouvelle_nuance_de_dégradé_1_4-3" x1="81.26" y1="160.71" x2="17.41" y2="224.57" xlink:href="#Nouvelle_nuance_de_dégradé_1_4"/><linearGradient id="Nouvelle_nuance_de_dégradé_1_4-4" x1="208.4" y1="283.93" x2="0" y2="283.93" xlink:href="#Nouvelle_nuance_de_dégradé_1_4"/></defs><g id="Calque_1-2"><path class="cls-4" d="M326.09,219.33c14.04,15.57,33.83,40.09,36.77,71.74,15.57-11.74,27.32-25.79,34.47-44.94-1.86-22.34-4.34-46.47-43.66-88.09-2.3,34.47-13.02,51.32-27.57,61.28Z"/><path class="cls-3" d="M401.92,234.9s-.55-61.17-62.3-91.4c-61.53-30.13-77.62,14.55-121.7-16.51-30.9-21.77-16.12-56.77-.34-72.17,48.08-46.95,118.13-26.89,165.22,49.61,38.81,63.05,19.12,130.47,19.12,130.47Z"/><path class="cls-1" d="M55.7,138.13c13.28,86.43,166.24,93.66,194.55,96.77,41.87,4.6,81.96,12.77,95.74,30.38,0,0-8.94-30.38-62.81-62.04-56.7-33.32-91.1-31.52-124.85-70.38-27.57-31.75-18.72-93.71,20.08-132.86C135.53,5.45,45.75,29.67,55.7,138.13Z"/><path class="cls-5" d="M205.32,238.47s121.02.51,144,36.77c22.98,36.26,12.47,109.28-112.9,136.05,35.28-69.16,22.17-137.41-31.1-172.82Z"/><path class="cls-6" d="M81.92,196.43c-16.85-12.87-36.71-37.62-35.57-70.64-15.57,11.74-29.61,27.38-36.75,46.53,1.86,22.34,4.34,46.47,43.66,88.09,2.3-34.47,14.12-54.02,28.67-63.98Z"/><path class="cls-2" d="M4.99,183.56s-1.87,66.72,62.3,91.4c63.96,24.6,71.66-20.26,121.7,16.51,30.46,22.38,20.75,58.83.34,72.17-56.25,36.76-118.13,26.89-165.22-49.61C-14.69,250.98,4.99,183.56,4.99,183.56Z"/></g></svg>