<svg width="50" height="50" viewBox="0 0 50 50" fill="none" xmlns="http://www.w3.org/2000/svg">
<path d="M10.6453 3.75928L8.44531 5.95615L11.7188 9.22803L13.9156 7.03115L10.6453 3.75928ZM39.3563 3.75928L36.0828 7.03115L38.2812 9.22803L41.5531 5.95771L39.3563 3.75928ZM25 4.73428C24.4844 4.73844 23.9635 4.77178 23.4375 4.83428H23.3906C17.0531 5.56084 12.0094 10.6812 11.1328 16.9905C10.4328 22.0686 12.5266 26.6733 16.0156 29.639C17.4426 30.8572 18.4079 32.5285 18.75 34.3733V43.7483H22.3125C22.8562 44.6811 23.8484 45.3108 25 45.3108C26.1516 45.3108 27.1437 44.6811 27.6875 43.7483H31.25V37.4983H31.3969V35.6421C31.3969 33.3515 32.5875 31.0421 34.5219 29.2468C37.1094 26.6562 39.0625 22.9765 39.0625 18.7499C39.0625 11.0312 32.7094 4.6624 25 4.73428ZM25 7.85928C31.0391 7.7749 35.9375 12.7187 35.9375 18.7499C35.9375 22.0218 34.4219 24.903 32.3234 26.9999L32.3734 27.0499C30.2889 28.9735 28.9407 31.564 28.5609 34.3749H21.7266C21.3828 31.6968 20.2344 29.1046 18.0641 27.2452C15.3031 24.9015 13.6578 21.3702 14.2078 17.3827C14.8906 12.4608 18.8844 8.50303 23.7781 7.96084C24.1822 7.9048 24.5891 7.87142 24.9969 7.86084L25 7.85928ZM3.125 18.7499V21.8749H7.8125V18.7499H3.125ZM42.1875 18.7499V21.8749H46.875V18.7499H42.1875ZM11.7188 31.3968L8.44688 34.6671L10.6453 36.8655L13.9141 33.5936L11.7188 31.3968ZM38.2812 31.3968L36.0844 33.5936L39.3547 36.8655L41.5531 34.6671L38.2812 31.3968ZM21.875 37.4999H28.125V40.6249H21.875V37.4999Z" fill="url(#paint0_linear_532_470)"/>
<defs>
<linearGradient id="paint0_linear_532_470" x1="3.125" y1="24.5351" x2="46.875" y2="24.5351" gradientUnits="userSpaceOnUse">
<stop stop-color="#00C8D7"/>
<stop offset="0.265858" stop-color="#02A2E3"/>
<stop offset="0.727897" stop-color="#047BEE"/>
</linearGradient>
</defs>
</svg>
