<svg width="50" height="50" viewBox="0 0 50 50" fill="none" xmlns="http://www.w3.org/2000/svg">
<path d="M35.3316 15.3992C31.6307 16.6329 26.748 17.334 21.5175 17.334C16.287 17.334 11.4044 16.6329 7.70341 15.3974C6.2223 14.9061 4.79498 14.2821 3.58643 13.495V21.2143C3.58643 24.5154 11.6142 27.1907 21.5175 27.1907C31.4209 27.1907 39.4486 24.5154 39.4486 21.2143V13.4932C38.2401 14.2821 36.8145 14.9043 35.3298 15.3992" fill="url(#paint0_linear_532_467)"/>
<path d="M39.4486 26.936C38.2401 27.7231 36.8145 28.3471 35.3298 28.8402C31.6307 30.0739 26.748 30.7768 21.5175 30.7768C16.287 30.7768 11.4044 30.0739 7.70341 28.8402C6.2223 28.3489 4.79498 27.7249 3.58643 26.936V35.2649C3.58643 38.5643 11.6142 41.2414 21.5175 41.2414C31.4209 41.2414 39.4486 38.5661 39.4486 35.2649V26.936ZM21.5175 13.7476C11.6142 13.7476 3.58643 11.0705 3.58643 7.7694V7.76402C3.59539 4.4647 11.6196 1.79297 21.5175 1.79297C28.9446 1.79297 35.3173 3.29918 38.0392 5.44374C38.9465 6.15919 39.4486 6.94457 39.4486 7.7694C39.4486 11.0705 31.4209 13.7476 21.5175 13.7476Z" fill="url(#paint1_linear_532_467)"/>
<path d="M48.8429 41.3234H46.5292V42.4803H48.8429V43.6371H47.1077C46.8008 43.6371 46.5066 43.759 46.2896 43.976C46.0727 44.1929 45.9508 44.4872 45.9508 44.794V45.9508C45.9508 46.2576 46.0727 46.5519 46.2896 46.7688C46.5066 46.9858 46.8008 47.1077 47.1077 47.1077H49.9998V42.4803C49.9998 41.8423 49.4809 41.3234 48.8429 41.3234ZM48.8429 45.9508H47.1077V44.794H48.8429V45.9508ZM45.3724 42.4803V41.3234H43.6371V40.1666H42.4803V41.3234H41.3234V42.4803H42.4803V45.9508C42.4803 46.5888 42.9997 47.1077 43.6371 47.1077H45.3724V45.9508H43.6371V42.4803H45.3724ZM39.5882 41.3234H37.2745V42.4803H39.5882V43.6371H37.8529C37.5461 43.6371 37.2518 43.759 37.0349 43.976C36.8179 44.1929 36.696 44.4872 36.696 44.794V45.9508C36.696 46.2576 36.8179 46.5519 37.0349 46.7688C37.2518 46.9858 37.5461 47.1077 37.8529 47.1077H40.745V42.4803C40.745 41.8423 40.2262 41.3234 39.5882 41.3234ZM39.5882 45.9508H37.8529V44.794H39.5882V45.9508ZM34.3824 39.0097V41.3234H32.6471C32.0097 41.3234 31.4902 41.8423 31.4902 42.4803V45.9508C31.4902 46.5888 32.0097 47.1077 32.6471 47.1077H35.5392V39.0097H34.3824ZM32.6471 42.4803H34.3824V45.9508H32.6471V42.4803ZM33.8039 37.8529V32.6471H38.1918L40.5055 34.9608H47.6861V39.5882H48.8429V34.9608C48.8429 34.654 48.721 34.3597 48.5041 34.1428C48.2871 33.9258 47.9929 33.8039 47.6861 33.8039H40.9845L39.0097 31.8292C38.7928 31.6122 38.4986 31.4903 38.1918 31.4902H33.8039C33.4971 31.4902 33.2029 31.6121 32.9859 31.8291C32.769 32.046 32.6471 32.3403 32.6471 32.6471V37.8529H33.8039Z" fill="url(#paint2_linear_532_467)"/>
<defs>
<linearGradient id="paint0_linear_532_467" x1="3.58643" y1="20.3419" x2="39.4486" y2="20.3419" gradientUnits="userSpaceOnUse">
<stop stop-color="#00C8D7"/>
<stop offset="0.265858" stop-color="#02A2E3"/>
<stop offset="0.727897" stop-color="#047BEE"/>
</linearGradient>
<linearGradient id="paint1_linear_532_467" x1="3.58643" y1="21.5172" x2="39.4486" y2="21.5172" gradientUnits="userSpaceOnUse">
<stop stop-color="#00C8D7"/>
<stop offset="0.265858" stop-color="#02A2E3"/>
<stop offset="0.727897" stop-color="#047BEE"/>
</linearGradient>
<linearGradient id="paint2_linear_532_467" x1="31.4902" y1="39.2989" x2="49.9998" y2="39.2989" gradientUnits="userSpaceOnUse">
<stop stop-color="#00C8D7"/>
<stop offset="0.265858" stop-color="#02A2E3"/>
<stop offset="0.727897" stop-color="#047BEE"/>
</linearGradient>
</defs>
</svg>
