<svg width="50" height="50" viewBox="0 0 50 50" fill="none" xmlns="http://www.w3.org/2000/svg">
<path fill-rule="evenodd" clip-rule="evenodd" d="M5.35714 0H22.7679V4.13571C21.6756 3.94095 20.554 3.98802 19.4819 4.27362C18.4099 4.55921 17.4135 5.07638 16.5629 5.78871C15.7123 6.50103 15.0282 7.39117 14.5589 8.39645C14.0895 9.40173 13.8463 10.4977 13.8463 11.6071C13.8463 12.7166 14.0895 13.8126 14.5589 14.8178C15.0282 15.8231 15.7123 16.7133 16.5629 17.4256C17.4135 18.1379 18.4099 18.6551 19.4819 18.9407C20.554 19.2263 21.6756 19.2733 22.7679 19.0786V22.7679H15.6C15.1688 22.7675 14.7468 22.8921 14.3849 23.1265C14.023 23.3609 13.7368 23.6951 13.5607 24.0887C13.3847 24.4823 13.3264 24.9185 13.393 25.3445C13.4595 25.7705 13.648 26.1681 13.9357 26.4893C14.3375 26.939 14.6007 27.4955 14.6933 28.0914C14.7859 28.6874 14.7041 29.2974 14.4577 29.8479C14.2114 30.3984 13.811 30.8659 13.3048 31.1938C12.7987 31.5218 12.2085 31.6964 11.6054 31.6964C11.0022 31.6964 10.412 31.5218 9.90588 31.1938C9.39975 30.8659 8.99935 30.3984 8.75298 29.8479C8.50661 29.2974 8.4248 28.6874 8.51743 28.0914C8.61006 27.4955 8.87317 26.939 9.275 26.4893C9.56247 26.1683 9.75092 25.7711 9.81759 25.3454C9.88425 24.9197 9.8263 24.4838 9.65071 24.0904C9.47512 23.6969 9.18941 23.3626 8.82806 23.128C8.4667 22.8933 8.04515 22.7682 7.61429 22.7679H0V5.35714C0 3.93634 0.564412 2.57373 1.56907 1.56907C2.57373 0.564412 3.93634 0 5.35714 0ZM0 27.2321V44.6429C0 46.0637 0.564412 47.4263 1.56907 48.4309C2.57373 49.4356 3.93634 50 5.35714 50H22.7679V42.3857C22.7675 41.9545 22.8921 41.5325 23.1265 41.1706C23.3609 40.8087 23.6951 40.5225 24.0887 40.3464C24.4823 40.1704 24.9185 40.1122 25.3445 40.1787C25.7705 40.2452 26.1681 40.4338 26.4893 40.7214C26.939 41.1233 27.4955 41.3864 28.0914 41.479C28.6874 41.5716 29.2974 41.4898 29.8479 41.2435C30.3984 40.9971 30.8659 40.5967 31.1938 40.0905C31.5218 39.5844 31.6964 38.9942 31.6964 38.3911C31.6964 37.788 31.5218 37.1977 31.1938 36.6916C30.8659 36.1855 30.3984 35.7851 29.8479 35.5387C29.2974 35.2923 28.6874 35.2105 28.0914 35.3031C27.4955 35.3958 26.939 35.6589 26.4893 36.0607C26.1683 36.3482 25.7711 36.5366 25.3454 36.6033C24.9197 36.67 24.4838 36.612 24.0904 36.4364C23.6969 36.2608 23.3626 35.9751 23.128 35.6138C22.8933 35.2524 22.7682 34.8309 22.7679 34.4V27.2321H19.0786C19.2733 28.3244 19.2263 29.446 18.9407 30.5181C18.6551 31.5901 18.1379 32.5865 17.4256 33.4371C16.7133 34.2877 15.8231 34.9718 14.8178 35.4411C13.8126 35.9105 12.7166 36.1537 11.6071 36.1537C10.4977 36.1537 9.40173 35.9105 8.39645 35.4411C7.39117 34.9718 6.50103 34.2877 5.78871 33.4371C5.07638 32.5865 4.55921 31.5901 4.27362 30.5181C3.98802 29.446 3.94095 28.3244 4.13571 27.2321H0ZM27.2321 27.2321V30.9214C28.3244 30.7267 29.446 30.7737 30.5181 31.0593C31.5901 31.3449 32.5865 31.8621 33.4371 32.5744C34.2877 33.2867 34.9718 34.1769 35.4411 35.1822C35.9105 36.1874 36.1537 37.2834 36.1537 38.3929C36.1537 39.5023 35.9105 40.5983 35.4411 41.6035C34.9718 42.6088 34.2877 43.499 33.4371 44.2113C32.5865 44.9236 31.5901 45.4408 30.5181 45.7264C29.446 46.012 28.3244 46.059 27.2321 45.8643V50H44.6429C46.0637 50 47.4263 49.4356 48.4309 48.4309C49.4356 47.4263 50 46.0637 50 44.6429V27.2321H42.3857C41.9545 27.2325 41.5325 27.1079 41.1706 26.8735C40.8087 26.6391 40.5225 26.3049 40.3464 25.9113C40.1704 25.5177 40.1122 25.0815 40.1787 24.6555C40.2452 24.2295 40.4338 23.8319 40.7214 23.5107C41.1233 23.061 41.3864 22.5045 41.479 21.9086C41.5716 21.3126 41.4898 20.7026 41.2435 20.1521C40.9971 19.6016 40.5967 19.1341 40.0905 18.8062C39.5844 18.4782 38.9942 18.3036 38.3911 18.3036C37.788 18.3036 37.1977 18.4782 36.6916 18.8062C36.1855 19.1341 35.7851 19.6016 35.5387 20.1521C35.2923 20.7026 35.2105 21.3126 35.3031 21.9086C35.3958 22.5045 35.6589 23.061 36.0607 23.5107C36.3482 23.8317 36.5366 24.2289 36.6033 24.6546C36.67 25.0803 36.612 25.5162 36.4364 25.9096C36.2608 26.3031 35.9751 26.6374 35.6138 26.872C35.2524 27.1067 34.8309 27.2318 34.4 27.2321H27.2321ZM50 22.7679V5.35714C50 3.93634 49.4356 2.57373 48.4309 1.56907C47.4263 0.564412 46.0637 0 44.6429 0L27.2321 0V7.61429C27.2325 8.04546 27.1079 8.46749 26.8735 8.82938C26.6391 9.19127 26.3049 9.47753 25.9113 9.65355C25.5177 9.82958 25.0815 9.88784 24.6555 9.8213C24.2295 9.75475 23.8319 9.56625 23.5107 9.27857C23.061 8.87674 22.5045 8.61363 21.9086 8.521C21.3126 8.42838 20.7026 8.51018 20.1521 8.75655C19.6016 9.00292 19.1341 9.40332 18.8062 9.90945C18.4782 10.4156 18.3036 11.0058 18.3036 11.6089C18.3036 12.212 18.4782 12.8023 18.8062 13.3084C19.1341 13.8145 19.6016 14.2149 20.1521 14.4613C20.7026 14.7077 21.3126 14.7895 21.9086 14.6969C22.5045 14.6042 23.061 14.3411 23.5107 13.9393C23.8317 13.6518 24.2289 13.4634 24.6546 13.3967C25.0803 13.33 25.5162 13.388 25.9096 13.5636C26.3031 13.7392 26.6374 14.0249 26.872 14.3862C27.1067 14.7476 27.2318 15.1691 27.2321 15.6V22.7679H30.9214C30.7267 21.6756 30.7737 20.554 31.0593 19.4819C31.3449 18.4099 31.8621 17.4135 32.5744 16.5629C33.2867 15.7123 34.1769 15.0282 35.1822 14.5589C36.1874 14.0895 37.2834 13.8463 38.3929 13.8463C39.5023 13.8463 40.5983 14.0895 41.6035 14.5589C42.6088 15.0282 43.499 15.7123 44.2113 16.5629C44.9236 17.4135 45.4408 18.4099 45.7264 19.4819C46.012 20.554 46.059 21.6756 45.8643 22.7679H50Z" fill="url(#paint0_linear_532_466)"/>
<defs>
<linearGradient id="paint0_linear_532_466" x1="0" y1="25" x2="50" y2="25" gradientUnits="userSpaceOnUse">
<stop stop-color="#00C8D7"/>
<stop offset="0.265858" stop-color="#02A2E3"/>
<stop offset="0.727897" stop-color="#047BEE"/>
</linearGradient>
</defs>
</svg>
