<svg width="56" height="55" viewBox="0 0 56 55" fill="none" xmlns="http://www.w3.org/2000/svg">
<path d="M36.8764 39.7212C36.3417 41.0962 35.4403 42.0129 34.4167 42.0129H21.4917C20.4528 42.0129 19.5667 41.0962 19.032 39.7212H2.02783V42.3948C2.10603 43.3746 2.56644 44.2842 3.30965 44.9274C4.05287 45.5706 5.01923 45.8956 6.00005 45.8323H50.0001C50.9809 45.8956 51.9472 45.5706 52.6904 44.9274C53.4337 44.2842 53.8941 43.3746 53.9723 42.3948V39.7212H36.8764Z" fill="#0B1E36"/>
<path d="M11.1944 15.2766H44.8055V36.6655H49.3888V11.5641C49.4012 10.9427 49.1671 10.3416 48.7377 9.89221C48.3083 9.4428 47.7185 9.18155 47.0972 9.16553H8.90272C8.28137 9.18155 7.6916 9.4428 7.26222 9.89221C6.83284 10.3416 6.59874 10.9427 6.61106 11.5641V36.6655H11.1944V15.2766Z" fill="#0B1E36"/>
</svg>
