<svg width="70" height="70" viewBox="0 0 70 70" fill="none" xmlns="http://www.w3.org/2000/svg">
<path d="M29.1668 64.1668H40.8335M23.3335 43.7502H46.6668M14.5835 26.2502C14.5835 20.8353 16.7345 15.6423 20.5634 11.8134C24.3923 7.98453 29.5853 5.8335 35.0002 5.8335C40.415 5.8335 45.6081 7.98453 49.4369 11.8134C53.2658 15.6423 55.4168 20.8353 55.4168 26.2502C55.4192 29.5375 54.6244 32.7765 53.1004 35.6893C51.5765 38.6021 49.3688 41.1019 46.6668 42.9743L45.086 50.4585C44.8767 51.838 44.1799 53.0968 43.1219 54.0065C42.064 54.9162 40.715 55.4166 39.3197 55.4168H30.6806C29.2853 55.4166 27.9363 54.9162 26.8784 54.0065C25.8204 53.0968 25.1236 51.838 24.9143 50.4585L23.3335 43.0064C20.6306 41.1273 18.4229 38.6217 16.8991 35.7037C15.3753 32.7857 14.5808 29.5421 14.5835 26.2502Z" stroke="#0B1E36" stroke-width="2" stroke-linecap="round" stroke-linejoin="round"/>
</svg>
