<svg width="13" height="13" viewBox="0 0 13 13" fill="none" xmlns="http://www.w3.org/2000/svg">
<path fill-rule="evenodd" clip-rule="evenodd" d="M1.5319 0.414532C1.67406 0.272573 1.84477 0.162449 2.0327 0.0914594C2.22064 0.0204694 2.42152 -0.00976588 2.62203 0.00275711C2.82253 0.0152801 3.01809 0.0702755 3.19573 0.164099C3.37338 0.257922 3.52906 0.388431 3.65246 0.546976L5.11085 2.42069C5.37815 2.76439 5.4724 3.2121 5.36678 3.63462L4.92235 5.41407C4.89954 5.50625 4.90086 5.60275 4.92619 5.69426C4.95152 5.78578 5.00001 5.86922 5.06697 5.93654L7.06322 7.93294C7.13062 8.00005 7.21419 8.04862 7.30585 8.07396C7.39752 8.09929 7.49417 8.10054 7.58646 8.07757L9.36496 7.63311C9.57348 7.58128 9.79103 7.57739 10.0013 7.62172C10.2115 7.66605 10.409 7.75745 10.5788 7.88906L12.4524 9.34675C13.1259 9.87084 13.1877 10.8662 12.5848 11.4683L11.7447 12.3085C11.1435 12.9097 10.2449 13.1738 9.40721 12.8789C7.26283 12.1253 5.31603 10.8977 3.71177 9.28744C2.10174 7.68329 0.874241 5.73663 0.120629 3.59237C-0.173487 2.75545 0.0905673 1.85597 0.691798 1.2547L1.5319 0.414532Z" fill="white"/>
</svg>
