<svg width="13" height="13" viewBox="0 0 13 13" fill="none" xmlns="http://www.w3.org/2000/svg">
<path d="M10.8331 0H2.16694C1.59276 0.00171462 1.04258 0.230567 0.636575 0.636575C0.230567 1.04258 0.00171462 1.59276 0 2.16694L0 10.8331C0 12.025 0.975 13 2.16694 13H10.8331C12.0258 13 13 12.025 13 10.8331V2.16694C12.9985 1.59269 12.7697 1.04239 12.3637 0.63634C11.9576 0.230285 11.4073 0.0015013 10.8331 0ZM3.25 3.25H9.75C9.867 3.25054 9.97777 3.27437 10.0823 3.3215L6.5 7.50019L2.91769 3.3215C3.02218 3.2745 3.13543 3.25014 3.25 3.25ZM2.4375 8.9375V4.0625L2.43913 4.01131L4.82138 6.79087L2.46512 9.14713C2.44683 9.07875 2.43754 9.00828 2.4375 8.9375ZM9.75 9.75H3.25C3.17796 9.75 3.10808 9.74079 3.04038 9.72237L5.35275 7.41L6.50081 8.749L7.64887 7.41L9.96125 9.72237C9.89288 9.74067 9.82241 9.74996 9.75163 9.75H9.75ZM10.5625 8.9375C10.5625 9.00954 10.5533 9.07942 10.5349 9.14713L8.17863 6.79087L10.5609 4.01131L10.5625 4.0625V8.9375Z" fill="white"/>
</svg>
