<svg width="15" height="15" viewBox="0 0 15 15" fill="none" xmlns="http://www.w3.org/2000/svg">
<path d="M12.5185 0C12.9335 0 13.3315 0.164864 13.625 0.458324C13.9185 0.751783 14.0833 1.1498 14.0833 1.56481V12.5185C14.0833 12.9335 13.9185 13.3315 13.625 13.625C13.3315 13.9185 12.9335 14.0833 12.5185 14.0833H1.56481C1.1498 14.0833 0.751783 13.9185 0.458324 13.625C0.164864 13.3315 0 12.9335 0 12.5185V1.56481C0 1.1498 0.164864 0.751783 0.458324 0.458324C0.751783 0.164864 1.1498 0 1.56481 0H12.5185ZM12.1273 12.1273V7.98056C12.1273 7.30408 11.8586 6.65531 11.3802 6.17697C10.9019 5.69864 10.2531 5.42991 9.57667 5.42991C8.91162 5.42991 8.13704 5.83676 7.76148 6.44704V5.57856H5.57856V12.1273H7.76148V8.27005C7.76148 7.66759 8.24657 7.17468 8.84903 7.17468C9.13954 7.17468 9.41815 7.29008 9.62357 7.4955C9.82899 7.70092 9.9444 7.97953 9.9444 8.27005V12.1273H12.1273ZM3.03574 4.35019C3.38435 4.35019 3.71869 4.2117 3.96519 3.96519C4.2117 3.71869 4.35019 3.38435 4.35019 3.03574C4.35019 2.3081 3.76338 1.71347 3.03574 1.71347C2.68505 1.71347 2.34873 1.85278 2.10076 2.10076C1.85278 2.34873 1.71347 2.68505 1.71347 3.03574C1.71347 3.76338 2.3081 4.35019 3.03574 4.35019ZM4.12329 12.1273V5.57856H1.95602V12.1273H4.12329Z" fill="white"/>
</svg>
